<svg width="800" height="500" xmlns="http://www.w3.org/2000/svg">
  <defs>
    <linearGradient id="grad3" x1="0%" y1="0%" x2="100%" y2="100%">
      <stop offset="0%" style="stop-color:#1e293b;stop-opacity:1" />
      <stop offset="100%" style="stop-color:#0f172a;stop-opacity:1" />
    </linearGradient>
  </defs>
  <rect width="800" height="500" fill="url(#grad3)" rx="12"/>
  
  <!-- Header -->
  <rect x="20" y="20" width="760" height="60" fill="#273549" rx="8"/>
  <text x="40" y="55" font-family="Arial" font-size="24" fill="#3b82f6" font-weight="bold">💊 Medication Tracker</text>
  
  <!-- Warning Banner -->
  <rect x="40" y="100" width="720" height="80" fill="#7c2d12" rx="8" opacity="0.3"/>
  <rect x="40" y="100" width="6" height="80" fill="#ef4444" rx="2"/>
  <text x="60" y="130" font-family="Arial" font-size="16" fill="#fca5a5" font-weight="bold">⚠️ INTERACTION WARNING DETECTED</text>
  <text x="60" y="155" font-family="Arial" font-size="14" fill="#fecaca">Warfarin + Aspirin = High bleeding risk</text>
  <text x="60" y="172" font-family="Arial" font-size="12" fill="#fed7aa">Consult doctor before combining these medications</text>
  
  <!-- Active Medications -->
  <text x="40" y="220" font-family="Arial" font-size="18" fill="#f1f5f9" font-weight="bold">Active Medications</text>
  
  <rect x="40" y="235" width="345" height="90" fill="#0f172a" rx="8"/>
  <rect x="40" y="235" width="6" height="90" fill="#3b82f6" rx="2"/>
  <text x="60" y="260" font-family="Arial" font-size="18" fill="#f1f5f9" font-weight="bold">Warfarin 5mg</text>
  <text x="60" y="285" font-family="Arial" font-size="12" fill="#94a3b8">Take at: 8:00 AM daily</text>
  <text x="60" y="305" font-family="Arial" font-size="12" fill="#94a3b8">Purpose: Blood thinner</text>
  <rect x="290" y="250" width="80" height="30" fill="#10b981" rx="6"/>
  <text x="330" y="272" font-family="Arial" font-size="14" fill="#ffffff" text-anchor="middle" font-weight="bold">Taken</text>
  
  <rect x="405" y="235" width="345" height="90" fill="#0f172a" rx="8"/>
  <rect x="405" y="235" width="6" height="90" fill="#ef4444" rx="2"/>
  <text x="425" y="260" font-family="Arial" font-size="18" fill="#f1f5f9" font-weight="bold">Aspirin 81mg</text>
  <text x="425" y="285" font-family="Arial" font-size="12" fill="#94a3b8">Take at: 8:00 AM daily</text>
  <text x="425" y="305" font-family="Arial" font-size="12" fill="#94a3b8">Purpose: Blood thinner</text>
  <rect x="655" y="250" width="80" height="30" fill="#ef4444" rx="6"/>
  <text x="695" y="272" font-family="Arial" font-size="14" fill="#ffffff" text-anchor="middle" font-weight="bold">Missed</text>
  
  <!-- Adherence -->
  <text x="40" y="365" font-family="Arial" font-size="18" fill="#f1f5f9" font-weight="bold">Adherence Rate (Last 7 Days)</text>
  <rect x="40" y="380" width="720" height="30" fill="#334155" rx="15"/>
  <rect x="40" y="380" width="612" height="30" fill="#10b981" rx="15"/>
  <text x="400" y="402" font-family="Arial" font-size="18" fill="#ffffff" font-weight="bold" text-anchor="middle">85%</text>
  
  <!-- Add Medication Button -->
  <rect x="280" y="440" width="240" height="45" fill="#3b82f6" rx="8"/>
  <text x="400" y="468" font-family="Arial" font-size="16" fill="#ffffff" text-anchor="middle" font-weight="bold">+ Add Medication</text>
</svg>
